<svg xmlns="http://www.w3.org/2000/svg" width="3840" height="2160" viewBox="0 0 3840 2160">
<rect width="3840" height="2160" fill="#16181d"/>
<g stroke="#1c1f25" stroke-width="1"><line x1="0" y1="0" x2="0" y2="2160"/><line x1="240" y1="0" x2="240" y2="2160"/><line x1="480" y1="0" x2="480" y2="2160"/><line x1="720" y1="0" x2="720" y2="2160"/><line x1="960" y1="0" x2="960" y2="2160"/><line x1="1200" y1="0" x2="1200" y2="2160"/><line x1="1440" y1="0" x2="1440" y2="2160"/><line x1="1680" y1="0" x2="1680" y2="2160"/><line x1="1920" y1="0" x2="1920" y2="2160"/><line x1="2160" y1="0" x2="2160" y2="2160"/><line x1="2400" y1="0" x2="2400" y2="2160"/><line x1="2640" y1="0" x2="2640" y2="2160"/><line x1="2880" y1="0" x2="2880" y2="2160"/><line x1="3120" y1="0" x2="3120" y2="2160"/><line x1="3360" y1="0" x2="3360" y2="2160"/><line x1="3600" y1="0" x2="3600" y2="2160"/><line x1="3840" y1="0" x2="3840" y2="2160"/><line x1="0" y1="0" x2="3840" y2="0"/><line x1="0" y1="240" x2="3840" y2="240"/><line x1="0" y1="480" x2="3840" y2="480"/><line x1="0" y1="720" x2="3840" y2="720"/><line x1="0" y1="960" x2="3840" y2="960"/><line x1="0" y1="1200" x2="3840" y2="1200"/><line x1="0" y1="1440" x2="3840" y2="1440"/><line x1="0" y1="1680" x2="3840" y2="1680"/><line x1="0" y1="1920" x2="3840" y2="1920"/><line x1="0" y1="2160" x2="3840" y2="2160"/></g>
<path d="M 2600,430 L 3080,1420 L 3036,1420 L 3186,1730 L 3010,1730 C 2900,1560 2800,1400 2600,1240 C 2400,1400 2300,1560 2190,1730 L 2014,1730 L 2164,1420 L 2120,1420 Z" fill="none" stroke="#5b9dff" stroke-width="8" opacity="0.9" stroke-linejoin="miter"/>
<g transform="translate(2600,1300) scale(0.972) translate(-2600,-1300)"><path d="M 2600,430 L 3080,1420 L 3036,1420 L 3186,1730 L 3010,1730 C 2900,1560 2800,1400 2600,1240 C 2400,1400 2300,1560 2190,1730 L 2014,1730 L 2164,1420 L 2120,1420 Z" fill="none" stroke="#e6e9ed" stroke-width="2" opacity="0.7" stroke-linejoin="miter"/></g>
</svg>